<?xml version="1.0" encoding="UTF-8" ?>
<!DOCTYPE svg PUBLIC "-//W3C//DTD SVG 1.1//EN" "http://www.w3.org/Graphics/SVG/1.1/DTD/svg11.dtd">
<svg width="192pt" height="192pt" viewBox="0 0 192 192" version="1.1" xmlns="http://www.w3.org/2000/svg">
<g id="#29da85ff">
<path fill="#29da85" opacity="1.00" d=" M 17.15 41.01 C 17.12 28.31 28.30 16.97 40.99 16.78 C 55.67 16.69 70.36 16.70 85.04 16.77 C 87.62 16.57 89.37 18.65 91.26 20.03 C 90.85 22.42 91.24 25.42 89.11 27.11 C 87.74 28.38 85.78 28.46 84.01 28.52 C 70.00 28.56 55.98 28.42 41.96 28.55 C 34.85 28.39 28.55 34.80 28.92 41.93 C 28.82 78.01 28.95 114.09 28.86 150.18 C 27.82 143.16 28.37 136.06 28.18 129.00 C 27.98 118.97 28.21 108.94 27.77 98.92 C 24.57 103.59 20.03 107.62 18.25 113.10 C 17.45 126.15 18.48 139.29 17.36 152.34 C 17.17 150.22 17.09 148.10 17.10 145.98 C 17.15 110.99 17.06 76.00 17.15 41.01 Z" />
</g>
<g id="#45e372ff">
<path fill="#45e372" opacity="1.00" d=" M 111.69 22.98 C 111.64 19.63 114.63 16.71 117.97 16.79 C 128.64 16.66 139.32 16.73 150.00 16.76 C 155.21 16.74 160.21 18.65 164.50 21.52 C 162.56 24.93 160.28 28.12 157.78 31.13 C 155.17 29.45 152.14 28.46 149.02 28.51 C 142.30 28.47 135.57 28.36 128.85 28.71 C 128.76 32.07 128.77 35.43 128.91 38.79 C 133.98 38.98 139.06 38.92 144.14 38.90 L 145.11 38.90 C 145.37 42.66 145.40 46.43 145.18 50.20 C 139.80 50.90 134.18 49.56 128.94 50.88 C 128.63 54.10 128.84 57.35 128.76 60.59 C 134.22 61.00 139.69 60.63 145.15 60.87 L 145.14 61.84 C 145.04 65.29 145.05 68.74 145.09 72.20 C 139.75 72.47 134.40 72.30 129.06 72.39 C 128.75 75.74 128.64 79.13 129.05 82.48 C 128.54 82.56 127.53 82.72 127.02 82.80 C 122.02 83.75 116.88 83.30 111.83 83.13 C 111.60 79.40 111.61 75.66 111.84 71.94 C 117.16 71.63 122.50 71.98 127.83 71.72 C 127.99 68.36 128.74 64.73 127.41 61.53 C 122.23 61.12 117.01 61.63 111.83 61.21 C 111.55 57.45 111.54 53.67 111.84 49.91 C 117.17 49.56 122.50 49.87 127.83 49.62 C 127.83 46.33 128.79 42.61 127.34 39.58 C 122.17 39.17 116.97 39.68 111.80 39.25 C 111.69 33.83 111.52 28.40 111.69 22.98 Z" />
</g>
<g id="#0000002c">
<path fill="#000000" opacity="0.17" d=" M 91.26 20.03 C 93.42 22.24 93.15 25.62 92.26 28.35 C 90.65 31.20 87.02 31.74 84.05 31.71 C 71.70 31.61 59.35 31.72 46.99 31.61 C 43.06 31.61 38.66 31.76 35.61 34.62 C 32.00 37.61 30.78 42.45 30.84 46.97 C 30.87 78.31 30.86 109.65 30.84 141.00 C 30.68 146.44 30.88 151.89 31.64 157.28 C 30.13 155.19 29.11 152.75 28.86 150.18 C 28.95 114.09 28.82 78.01 28.92 41.93 C 28.55 34.80 34.85 28.39 41.96 28.55 C 55.98 28.42 70.00 28.56 84.01 28.52 C 85.78 28.46 87.74 28.38 89.11 27.11 C 91.24 25.42 90.85 22.42 91.26 20.03 Z" />
</g>
<g id="#51e76aff">
<path fill="#51e76a" opacity="1.00" d=" M 157.78 31.13 C 160.28 28.12 162.56 24.93 164.50 21.52 C 169.64 25.53 173.32 31.36 174.38 37.83 C 174.71 44.12 174.49 50.43 174.50 56.73 C 169.98 60.73 167.36 66.36 162.87 70.38 C 162.70 60.91 162.88 51.43 162.79 41.96 C 162.85 38.56 161.56 35.22 159.26 32.73 C 158.89 32.33 158.15 31.53 157.78 31.13 Z" />
</g>
<g id="#0000003a">
<path fill="#000000" opacity="0.23" d=" M 128.85 28.71 C 135.57 28.36 142.30 28.47 149.02 28.51 C 152.14 28.46 155.17 29.45 157.78 31.13 C 158.15 31.53 158.89 32.33 159.26 32.73 C 150.75 30.46 141.86 31.00 133.16 31.28 C 129.77 31.48 129.91 35.51 129.86 37.99 C 134.60 38.67 139.44 37.89 144.14 38.90 C 139.06 38.92 133.98 38.98 128.91 38.79 C 128.77 35.43 128.76 32.07 128.85 28.71 Z" />
<path fill="#000000" opacity="0.23" d=" M 145.18 83.85 C 145.78 85.83 146.22 87.89 146.19 89.97 C 146.15 103.66 145.97 117.34 146.13 131.03 C 145.98 133.52 146.44 136.51 144.45 138.42 C 142.40 140.95 138.86 140.29 136.00 140.42 C 130.00 140.17 123.99 140.66 118.00 140.24 C 116.62 140.23 115.82 138.91 114.81 138.18 C 122.56 138.32 130.31 138.38 138.05 138.29 C 140.41 138.27 143.30 137.81 144.42 135.42 C 145.66 132.10 145.08 128.46 145.21 125.00 C 145.08 111.28 145.38 97.56 145.18 83.85 Z" />
<path fill="#000000" opacity="0.23" d=" M 118.03 116.42 C 124.95 116.39 131.86 116.38 138.78 116.42 C 138.83 117.05 138.94 118.31 138.99 118.93 C 132.72 119.00 126.44 118.95 120.17 119.16 C 119.50 121.46 118.82 123.77 118.12 126.06 C 117.59 122.87 117.66 119.62 118.03 116.42 Z" />
</g>
<g id="#00000036">
<path fill="#000000" opacity="0.21" d=" M 174.38 37.83 C 176.30 41.94 176.09 46.57 176.11 51.00 C 176.03 84.01 176.12 117.02 176.07 150.03 C 175.99 159.27 171.56 168.83 163.13 173.22 C 157.44 176.83 150.50 176.68 144.02 176.88 C 113.35 176.91 82.68 176.86 52.01 176.91 C 44.84 176.80 37.12 177.13 30.75 173.27 C 29.12 172.50 28.09 171.00 27.19 169.50 C 31.61 172.31 36.67 174.26 41.98 174.21 C 51.60 174.31 61.23 174.21 70.85 174.23 C 85.48 174.24 100.11 174.26 114.73 174.22 C 125.83 174.25 136.92 174.23 148.01 174.25 C 152.59 174.29 157.27 173.53 161.32 171.31 C 169.11 167.24 174.43 158.82 174.51 150.00 C 174.57 134.90 174.56 119.80 174.49 104.70 C 174.57 88.71 174.56 72.72 174.50 56.73 C 174.49 50.43 174.71 44.12 174.38 37.83 Z" />
</g>
<g id="#5bea63ff">
<path fill="#5bea63" opacity="1.00" d=" M 162.87 70.38 C 167.36 66.36 169.98 60.73 174.50 56.73 C 174.56 72.72 174.57 88.71 174.49 104.70 C 169.89 108.60 167.13 114.10 162.96 118.40 C 162.63 102.40 162.83 86.39 162.87 70.38 Z" />
</g>
<g id="#00000039">
<path fill="#000000" opacity="0.22" d=" M 145.14 61.84 C 147.53 65.79 146.15 70.39 145.50 74.62 C 141.13 75.11 136.68 74.67 132.33 75.34 C 129.60 76.50 130.93 79.78 130.55 82.01 L 129.82 82.38 L 129.05 82.48 C 128.64 79.13 128.75 75.74 129.06 72.39 C 134.40 72.30 139.75 72.47 145.09 72.20 C 145.05 68.74 145.04 65.29 145.14 61.84 Z" />
</g>
<g id="#53e768ff">
<path fill="#53e768" opacity="1.00" d=" M 127.02 82.80 C 127.53 82.72 128.54 82.56 129.05 82.48 L 129.82 82.38 C 134.91 83.09 140.05 82.50 145.16 82.87 L 145.18 83.85 C 145.38 97.56 145.08 111.28 145.21 125.00 C 145.08 128.46 145.66 132.10 144.42 135.42 C 143.30 137.81 140.41 138.27 138.05 138.29 C 130.31 138.38 122.56 138.32 114.81 138.18 C 113.25 136.45 111.47 134.57 111.72 132.03 C 111.59 119.31 111.63 106.57 111.81 93.85 C 117.17 93.63 122.53 93.80 127.90 93.68 C 128.03 90.06 128.80 86.15 127.02 82.80 M 118.03 116.42 C 117.66 119.62 117.59 122.87 118.12 126.06 L 117.95 126.64 C 124.92 126.79 131.89 126.76 138.87 126.65 C 138.94 124.08 138.91 121.50 138.99 118.93 C 138.94 118.31 138.83 117.05 138.78 116.42 C 131.86 116.38 124.95 116.39 118.03 116.42 Z" />
</g>
<g id="#37df7bff">
<path fill="#37df7b" opacity="1.00" d=" M 18.25 113.10 C 20.03 107.62 24.57 103.59 27.77 98.92 C 28.21 108.94 27.98 118.97 28.18 129.00 C 28.37 136.06 27.82 143.16 28.86 150.18 C 29.11 152.75 30.13 155.19 31.64 157.28 C 32.25 158.08 32.92 158.84 33.57 159.61 C 30.29 161.99 28.13 165.45 26.49 169.09 C 21.73 164.72 17.84 158.94 17.36 152.34 C 18.48 139.29 17.45 126.15 18.25 113.10 Z" />
</g>
<g id="#64ed5dff">
<path fill="#64ed5d" opacity="1.00" d=" M 162.96 118.40 C 167.13 114.10 169.89 108.60 174.49 104.70 C 174.56 119.80 174.57 134.90 174.51 150.00 C 174.43 158.82 169.11 167.24 161.32 171.31 C 157.27 173.53 152.59 174.29 148.01 174.25 C 136.92 174.23 125.83 174.25 114.73 174.22 C 116.91 170.12 119.58 166.32 122.19 162.50 C 131.43 162.39 140.68 162.56 149.92 162.42 C 156.59 162.47 162.62 156.66 162.74 149.97 C 163.02 139.45 162.52 128.91 162.96 118.40 Z" />
</g>
<g id="#48e470ff">
<path fill="#48e470" opacity="1.00" d=" M 26.49 169.09 C 28.13 165.45 30.29 161.99 33.57 159.61 C 36.16 161.15 38.99 162.53 42.08 162.44 C 54.14 162.54 66.19 162.39 78.24 162.51 C 75.95 166.52 73.36 170.35 70.85 174.23 C 61.23 174.21 51.60 174.31 41.98 174.21 C 36.67 174.26 31.61 172.31 27.19 169.50 L 26.49 169.09 Z" />
</g>
<g id="#56e866ff">
<path fill="#56e866" opacity="1.00" d=" M 78.24 162.51 C 92.89 162.44 107.54 162.44 122.19 162.50 C 119.58 166.32 116.91 170.12 114.73 174.22 C 100.11 174.26 85.48 174.24 70.85 174.23 C 73.36 170.35 75.95 166.52 78.24 162.51 Z" />
</g>
</svg>
