<svg width="32" height="32" viewBox="0 0 32 32" fill="none" xmlns="http://www.w3.org/2000/svg">
<path d="M16.0086 3H16.7941C17.7345 3.18964 18.4956 4.02617 18.5126 4.9923C18.5349 8.36582 18.5115 11.7404 18.5232 15.1139C18.5359 15.7102 18.4267 16.3519 18.0133 16.8102C17.4843 17.4412 16.5599 17.7036 15.7743 17.4497C15.1086 17.2579 14.5541 16.708 14.3792 16.0389C14.2848 15.7071 14.2764 15.3594 14.2774 15.0159C14.2901 11.6761 14.2668 8.33526 14.2891 4.99546C14.3039 4.02723 15.0662 3.18859 16.0086 3Z" fill="url(#paint0_linear)"/>
<path d="M8.49843 5.79932C9.2755 5.48009 10.272 5.88256 10.5646 6.67484C10.8455 7.33753 10.5932 8.15299 10.0123 8.57126C7.36623 10.6552 5.87464 14.113 6.2372 17.4539C6.51283 20.6146 8.40726 23.5719 11.1498 25.1892C12.6297 26.0889 14.345 26.5578 16.0719 26.6463C18.5505 26.7063 21.0524 25.8687 22.9468 24.2684C25.5876 22.118 26.9975 18.5717 26.5321 15.2098C26.2607 12.9393 25.1476 10.8038 23.5193 9.20129C23.0168 8.72613 22.3224 8.3479 22.1613 7.622C21.9132 6.71066 22.6563 5.7319 23.5967 5.68343C24.414 5.61074 25.0013 6.26816 25.5589 6.75596C27.2657 8.33948 28.5474 10.3718 29.2195 12.5959C29.9054 14.8326 29.9924 17.2463 29.4506 19.5231C28.6407 23.0599 26.2883 26.2122 23.1207 28.0127C21.0958 29.2012 18.7413 29.789 16.3963 29.8175C14.2125 29.788 12.0223 29.2802 10.0971 28.2424C7.5263 26.8886 5.42303 24.675 4.21767 22.0432C2.83528 19.0806 2.62537 15.6133 3.61128 12.5011C4.27492 10.3623 5.50572 8.40164 7.13724 6.86027C7.55493 6.46834 7.97579 6.04797 8.49843 5.79932Z" fill="url(#paint1_linear)"/>
<defs>
<linearGradient id="paint0_linear" x1="16.4008" y1="17.5457" x2="16.4008" y2="3" gradientUnits="userSpaceOnUse">
<stop stop-color="#FF0000"/>
<stop offset="0.9999" stop-color="#FFA6A6"/>
<stop offset="1" stop-color="#FF8282"/>
</linearGradient>
<linearGradient id="paint1_linear" x1="16.4016" y1="29.8175" x2="16.4016" y2="5.67789" gradientUnits="userSpaceOnUse">
<stop stop-color="#FF2424"/>
<stop offset="1" stop-color="#FF8D8D"/>
</linearGradient>
</defs>
</svg>
