<svg id="Capa_1" enable-background="new 0 0 512 512" height="512" viewBox="0 0 512 512" width="512" xmlns="http://www.w3.org/2000/svg" xmlns:xlink="http://www.w3.org/1999/xlink"><linearGradient id="SVGID_1_" gradientUnits="userSpaceOnUse" x1="256" x2="256" y1="512" y2="0"><stop offset="0" stop-color="#fd3a84"/><stop offset="1" stop-color="#ffa68d"/></linearGradient><path d="m506.002 244-120-90c-5.079-3.81-12.007-4.008-17.297-.496s-7.795 9.974-6.255 16.134l10.341 41.362h-41.789v-196c0-8.284-6.716-15-15-15h-301c-8.284 0-15 6.716-15 15v482c0 8.284 6.716 15 15 15h301c8.284 0 15-6.716 15-15v-196h41.789l-10.341 41.362c-1.54 6.16.965 12.622 6.255 16.134 5.335 3.542 12.261 3.281 17.297-.496l120-90c7.988-5.991 8.001-17.999 0-24zm-205 238h-271v-452h271v181h-195c-8.284 0-15 6.716-15 15v60c0 8.284 6.716 15 15 15h195zm100.799-173.349 4.753-19.013c1.12-4.481.113-9.229-2.729-12.869-2.843-3.641-7.204-5.769-11.823-5.769h-271v-30h271c4.619 0 8.98-2.128 11.823-5.769 2.842-3.641 3.849-8.388 2.729-12.869l-4.753-19.013 70.201 52.651z" fill="url(#SVGID_1_)"/></svg>